<?xml version="1.0" encoding="utf-8"?>
<!-- Generator: Adobe Illustrator 16.0.4, SVG Export Plug-In . SVG Version: 6.00 Build 0)  -->
<!DOCTYPE svg PUBLIC "-//W3C//DTD SVG 1.1//EN" "http://www.w3.org/Graphics/SVG/1.1/DTD/svg11.dtd">
<svg version="1.1" id="Layer_1" xmlns="http://www.w3.org/2000/svg" xmlns:xlink="http://www.w3.org/1999/xlink" x="0px" y="0px"
	 width="600px" height="353px" viewBox="-60 0 600 353" enable-background="new -60 0 600 353" xml:space="preserve">
<g id="ART" opacity="0.4">
	<path fill="#FFFFFF" d="M468.173,352.531h-58.577c-6.258,0-10.572-1.07-15.902-3.947l-127.137-52.889
		c-1.088-0.487-2.061-0.906-2.951-1.288c-5.771-2.476-8.668-3.72-8.668-10.582v-90.63h-29.875v90.63
		c0,6.862-2.896,8.106-8.667,10.582c-0.891,0.382-1.864,0.801-2.922,1.276L86.308,348.583c-5.329,2.876-9.644,3.946-15.903,3.946
		H11.827C5.306,352.531,0,347.248,0,340.756V11.775C0,5.282,5.306,0,11.827,0h58.577c6.259,0,10.574,1.07,15.903,3.947
		l127.139,52.887c1.086,0.49,2.059,0.908,2.95,1.29c5.771,2.476,8.667,3.718,8.667,10.582v90.63h29.875v-90.63
		c0-6.864,2.896-8.106,8.668-10.582c0.893-0.382,1.863-0.8,2.924-1.278L393.693,3.947C399.021,1.07,403.338,0,409.596,0h58.577
		C474.695,0,480,5.282,480,11.775v98.982c0,1.195-0.913,2.25-2.271,2.626c-0.236,0.066-0.487,0.109-0.747,0.128l-0.02,0.011
		l-0.305,0.004l-74.959-0.007c-0.314-0.014-0.618-0.057-0.908-0.129c-1.468-0.373-2.45-1.433-2.45-2.641V48.797
		c0-1.679-1.374-3.045-3.062-3.045c-1.025,0-1.025,0-2.623,0.384l-88.479,27.513c-0.861,0.295-1.668,0.562-2.396,0.802
		c-6.229,2.058-6.229,2.058-6.127,8.5l-0.018,76.386H477.03l0.024,0.022c0.231,0.021,0.457,0.062,0.676,0.123
		c1.356,0.377,2.271,1.433,2.271,2.626v178.648C480,347.248,474.695,352.531,468.173,352.531z M223.07,191.203h33.86v92.622
		c0,5.551,1.729,6.293,7.461,8.752c0.9,0.387,1.885,0.81,2.957,1.293l127.248,52.938c5.026,2.723,9.094,3.731,14.999,3.731h58.577
		c5.423,0,9.835-4.389,9.835-9.783V162.107c0-0.239-0.278-0.559-0.812-0.707c-0.161-0.045-0.339-0.067-0.524-0.067l-183.028-0.005
		l0.019-78.362c-0.123-7.633,0.626-8.138,7.491-10.406c0.726-0.239,1.523-0.503,2.406-0.805l88.565-27.538
		c1.804-0.437,1.948-0.457,3.151-0.457c2.788,0,5.056,2.259,5.056,5.037v61.953c0,0.231,0.353,0.559,0.943,0.709
		c0.19,0.048,0.405,0.073,0.633,0.075l0.188,0.002l74.566-0.004c0.191,0,0.372-0.022,0.533-0.067
		c0.531-0.147,0.812-0.467,0.812-0.707V11.775c0-5.395-4.412-9.784-9.835-9.784h-58.577c-5.905,0-9.973,1.011-15,3.731l-0.091,0.044
		L267.318,58.673c-1.043,0.472-2.027,0.895-2.93,1.282c-5.73,2.459-7.459,3.201-7.459,8.751v92.622h-33.861V68.706
		c0-5.551-1.729-6.292-7.46-8.751c-0.901-0.387-1.886-0.81-2.958-1.293L85.403,5.723c-5.025-2.72-9.091-3.731-15-3.731H11.827
		c-5.423,0-9.835,4.389-9.835,9.784v328.98c0,5.396,4.412,9.783,9.835,9.783h58.577c5.909,0,9.974-1.011,15-3.731l0.091-0.042
		l127.186-52.906c1.044-0.473,2.028-0.896,2.93-1.28c5.731-2.459,7.461-3.201,7.461-8.752v-92.623L223.07,191.203L223.07,191.203z
		 M395.277,308.771c-1.205,0-1.352-0.021-3.09-0.439l-88.604-27.547c-0.907-0.311-1.706-0.574-2.431-0.812
		c-6.868-2.27-7.617-2.773-7.494-10.425l-0.02-78.345h102.174c2.49,0,4.518,2.02,4.518,4.5v108.031
		C400.332,306.512,398.064,308.771,395.277,308.771z M295.635,193.195l0.018,76.369c-0.104,6.457-0.104,6.457,6.13,8.518
		c0.729,0.24,1.532,0.506,2.422,0.811l88.514,27.521c1.534,0.367,1.534,0.367,2.562,0.367c1.688,0,3.062-1.366,3.062-3.047V195.703
		c0-1.383-1.133-2.508-2.523-2.508H295.635z M84.723,308.771c-2.787,0-5.055-2.262-5.055-5.037V195.703c0-2.48,2.026-4.5,4.517-4.5
		h102.173l-0.018,78.361c0.124,7.633-0.626,8.139-7.495,10.408c-0.723,0.236-1.521,0.502-2.402,0.803l-88.568,27.539
		C86.072,308.751,85.927,308.771,84.723,308.771z M84.185,193.195c-1.393,0-2.525,1.125-2.525,2.508v108.031
		c0,1.679,1.374,3.045,3.063,3.045c1.026,0,1.026,0,2.623-0.385l88.479-27.514c0.861-0.295,1.666-0.562,2.395-0.801
		c6.233-2.062,6.233-2.062,6.128-8.501l0.018-76.388H84.185V193.195z M186.358,161.328H84.185c-2.49,0-4.517-2.02-4.517-4.501
		V48.797c0-2.778,2.268-5.037,5.055-5.037c1.204,0,1.349,0.021,3.089,0.44l88.604,27.546c0.908,0.31,1.706,0.574,2.429,0.813
		c6.869,2.269,7.619,2.774,7.495,10.423L186.358,161.328z M84.723,45.751c-1.689,0-3.063,1.366-3.063,3.045v108.03
		c0,1.384,1.132,2.509,2.525,2.509h100.181l-0.018-76.37c0.104-6.458,0.104-6.458-6.128-8.516c-0.729-0.241-1.534-0.507-2.422-0.811
		L87.283,46.119C85.75,45.751,85.75,45.751,84.723,45.751z"/>
</g>
<g id="NEW_ART" opacity="0.4">
</g>
</svg>
